<mxfile host="app.diagrams.net" agent="Mozilla/5.0 (Windows NT 10.0; Win64; x64) AppleWebKit/537.36 (KHTML, like Gecko) Chrome/130.0.0.0 Safari/537.36 OPR/115.0.0.0" version="25.0.3">
  <diagram name="Page-1" id="a8UAsYUJJ_rxlhREEHtc">
    <mxGraphModel dx="1840" dy="985" grid="0" gridSize="10" guides="1" tooltips="1" connect="1" arrows="1" fold="1" page="1" pageScale="1" pageWidth="2339" pageHeight="3300" math="0" shadow="0">
      <root>
        <mxCell id="0" />
        <mxCell id="1" parent="0" />
        <mxCell id="IPqHcb7CeHi4oXEtAHNm-1" value="" style="rounded=0;whiteSpace=wrap;html=1;" vertex="1" parent="1">
          <mxGeometry x="101" y="101" width="1500" height="2090" as="geometry" />
        </mxCell>
        <mxCell id="IPqHcb7CeHi4oXEtAHNm-6" value="" style="ellipse;whiteSpace=wrap;html=1;aspect=fixed;fillColor=#FFFFFF;" vertex="1" parent="1">
          <mxGeometry x="527" y="365" width="80" height="80" as="geometry" />
        </mxCell>
        <mxCell id="IPqHcb7CeHi4oXEtAHNm-7" value="&lt;font style=&quot;font-size: 18px;&quot;&gt;Log into the dashboard&lt;/font&gt;" style="html=1;dashed=0;whiteSpace=wrap;shape=mxgraph.dfd.start" vertex="1" parent="1">
          <mxGeometry x="497" y="714" width="258.67" height="97" as="geometry" />
        </mxCell>
      </root>
    </mxGraphModel>
  </diagram>
</mxfile>
